<mxfile host="Electron" modified="2024-04-08T17:13:10.207Z" agent="Mozilla/5.0 (Macintosh; Intel Mac OS X 10_15_7) AppleWebKit/537.36 (KHTML, like Gecko) draw.io/24.1.0 Chrome/120.0.6099.109 Electron/28.1.0 Safari/537.36" etag="HPMMVTAnQZEI0hgDOp3c" version="24.1.0" type="device">
  <diagram name="Page-1" id="tKTZuB-xBKqNt3nbTBtX">
    <mxGraphModel dx="2105" dy="1623" grid="0" gridSize="10" guides="1" tooltips="1" connect="1" arrows="1" fold="1" page="1" pageScale="1" pageWidth="827" pageHeight="1169" math="0" shadow="0">
      <root>
        <mxCell id="0" />
        <mxCell id="1" parent="0" />
        <mxCell id="6q7W-WelTIBXOBJU0YRO-3" value="&lt;font style=&quot;font-size: 19px;&quot;&gt;Local environment&lt;/font&gt;" style="rounded=1;whiteSpace=wrap;html=1;labelPosition=center;verticalLabelPosition=top;align=center;verticalAlign=bottom;dashed=1;dashPattern=12 12;fillStyle=dashed;" parent="1" vertex="1">
          <mxGeometry x="-685" y="-592" width="733" height="916" as="geometry" />
        </mxCell>
        <mxCell id="6q7W-WelTIBXOBJU0YRO-10" value="" style="shape=image;verticalLabelPosition=bottom;labelBackgroundColor=default;verticalAlign=top;aspect=fixed;imageAspect=0;image=https://tse4.mm.bing.net/th?id=OIP.1d0mVLuJOaDz74eOLC4fkAAAAA&amp;pid=Api;" parent="1" vertex="1">
          <mxGeometry x="-951" y="-303" width="168.32" height="72" as="geometry" />
        </mxCell>
        <mxCell id="6q7W-WelTIBXOBJU0YRO-15" value="" style="shape=flexArrow;endArrow=classic;startArrow=classic;html=1;rounded=0;entryX=0.25;entryY=1;entryDx=0;entryDy=0;exitX=0.264;exitY=0.004;exitDx=0;exitDy=0;exitPerimeter=0;" parent="1" source="6q7W-WelTIBXOBJU0YRO-5" target="6q7W-WelTIBXOBJU0YRO-1" edge="1">
          <mxGeometry width="100" height="100" relative="1" as="geometry">
            <mxPoint x="-427" y="133" as="sourcePoint" />
            <mxPoint x="-327" y="33" as="targetPoint" />
          </mxGeometry>
        </mxCell>
        <mxCell id="6q7W-WelTIBXOBJU0YRO-16" value="" style="aspect=fixed;sketch=0;html=1;dashed=0;whitespace=wrap;fillColor=#2875E2;strokeColor=#ffffff;points=[[0.005,0.63,0],[0.1,0.2,0],[0.9,0.2,0],[0.5,0,0],[0.995,0.63,0],[0.72,0.99,0],[0.5,1,0],[0.28,0.99,0]];shape=mxgraph.kubernetes.icon2;kubernetesLabel=1;prIcon=api" parent="1" vertex="1">
          <mxGeometry x="64" y="-179" width="50" height="48" as="geometry" />
        </mxCell>
        <mxCell id="6q7W-WelTIBXOBJU0YRO-35" value="" style="group;fontSize=18;" parent="1" vertex="1" connectable="0">
          <mxGeometry x="-437" y="69" width="403" height="168" as="geometry" />
        </mxCell>
        <mxCell id="6q7W-WelTIBXOBJU0YRO-5" value="&lt;font style=&quot;font-size: 19px;&quot;&gt;Postgres Database&lt;/font&gt;" style="shape=datastore;whiteSpace=wrap;html=1;labelPosition=center;verticalLabelPosition=top;align=center;verticalAlign=bottom;" parent="6q7W-WelTIBXOBJU0YRO-35" vertex="1">
          <mxGeometry width="403" height="168" as="geometry" />
        </mxCell>
        <mxCell id="6q7W-WelTIBXOBJU0YRO-34" value="" style="group" parent="6q7W-WelTIBXOBJU0YRO-35" vertex="1" connectable="0">
          <mxGeometry x="31.5" y="88" width="340" height="40" as="geometry" />
        </mxCell>
        <mxCell id="6q7W-WelTIBXOBJU0YRO-6" value="Users" style="whiteSpace=wrap;html=1;align=center;" parent="6q7W-WelTIBXOBJU0YRO-34" vertex="1">
          <mxGeometry width="100" height="40" as="geometry" />
        </mxCell>
        <mxCell id="6q7W-WelTIBXOBJU0YRO-20" value="Raw Receipt" style="whiteSpace=wrap;html=1;align=center;" parent="6q7W-WelTIBXOBJU0YRO-34" vertex="1">
          <mxGeometry x="240" width="100" height="40" as="geometry" />
        </mxCell>
        <mxCell id="6q7W-WelTIBXOBJU0YRO-21" value="Receipt" style="whiteSpace=wrap;html=1;align=center;" parent="6q7W-WelTIBXOBJU0YRO-34" vertex="1">
          <mxGeometry x="118.5" width="100" height="40" as="geometry" />
        </mxCell>
        <mxCell id="6q7W-WelTIBXOBJU0YRO-39" value="" style="group" parent="1" vertex="1" connectable="0">
          <mxGeometry x="-546" y="-350" width="466" height="305" as="geometry" />
        </mxCell>
        <mxCell id="6q7W-WelTIBXOBJU0YRO-1" value="&lt;font style=&quot;font-size: 19px;&quot;&gt;Server&lt;/font&gt;" style="rounded=1;whiteSpace=wrap;html=1;labelPosition=center;verticalLabelPosition=top;align=center;verticalAlign=bottom;" parent="6q7W-WelTIBXOBJU0YRO-39" vertex="1">
          <mxGeometry x="-36" y="-116.56050955414011" width="502" height="421.56050955414" as="geometry" />
        </mxCell>
        <mxCell id="gesQ5qLBWTV1xN1W36ZR-29" value="" style="group" parent="6q7W-WelTIBXOBJU0YRO-39" vertex="1" connectable="0">
          <mxGeometry x="310" y="-91.30573248407642" width="136" height="364.35843949044585" as="geometry" />
        </mxCell>
        <mxCell id="gesQ5qLBWTV1xN1W36ZR-5" value="" style="strokeWidth=2;html=1;shape=mxgraph.flowchart.direct_data;whiteSpace=wrap;" parent="gesQ5qLBWTV1xN1W36ZR-29" vertex="1">
          <mxGeometry width="136" height="364.35843949044585" as="geometry" />
        </mxCell>
        <mxCell id="gesQ5qLBWTV1xN1W36ZR-6" value="Endpoint" style="text;html=1;align=center;verticalAlign=middle;whiteSpace=wrap;rounded=0;" parent="gesQ5qLBWTV1xN1W36ZR-29" vertex="1">
          <mxGeometry x="23.233333333333334" y="7.646835918919658" width="68" height="46.91310379705311" as="geometry" />
        </mxCell>
        <mxCell id="gesQ5qLBWTV1xN1W36ZR-25" value="/users/" style="strokeWidth=2;html=1;shape=mxgraph.flowchart.terminator;whiteSpace=wrap;" parent="gesQ5qLBWTV1xN1W36ZR-29" vertex="1">
          <mxGeometry x="19.833333333333332" y="62.37879034881495" width="74.8" height="46.91310379705311" as="geometry" />
        </mxCell>
        <mxCell id="gesQ5qLBWTV1xN1W36ZR-26" value="/uploadReceipt/" style="strokeWidth=2;html=1;shape=mxgraph.flowchart.terminator;whiteSpace=wrap;" parent="gesQ5qLBWTV1xN1W36ZR-29" vertex="1">
          <mxGeometry x="4.533333333333333" y="128.0571356646893" width="105.39999999999999" height="48.47687392362154" as="geometry" />
        </mxCell>
        <mxCell id="gesQ5qLBWTV1xN1W36ZR-27" value="/uplaod&lt;div&gt;Receip&lt;/div&gt;&lt;div&gt;Data/&lt;/div&gt;" style="strokeWidth=2;html=1;shape=mxgraph.flowchart.terminator;whiteSpace=wrap;" parent="gesQ5qLBWTV1xN1W36ZR-29" vertex="1">
          <mxGeometry x="3.4" y="189.04417060085834" width="107.66666666666666" height="78.18850632842184" as="geometry" />
        </mxCell>
        <mxCell id="gesQ5qLBWTV1xN1W36ZR-28" value="/getReceipt/" style="strokeWidth=2;html=1;shape=mxgraph.flowchart.terminator;whiteSpace=wrap;" parent="gesQ5qLBWTV1xN1W36ZR-29" vertex="1">
          <mxGeometry x="6.8" y="285.9979184481014" width="100.86666666666666" height="48.47687392362154" as="geometry" />
        </mxCell>
        <mxCell id="6q7W-WelTIBXOBJU0YRO-44" value="" style="group" parent="1" vertex="1" connectable="0">
          <mxGeometry x="255" y="-374" width="310" height="470" as="geometry" />
        </mxCell>
        <mxCell id="6q7W-WelTIBXOBJU0YRO-2" value="&lt;font style=&quot;font-size: 19px;&quot;&gt;Mobile Application&lt;/font&gt;" style="rounded=1;whiteSpace=wrap;html=1;labelPosition=center;verticalLabelPosition=top;align=center;verticalAlign=bottom;" parent="6q7W-WelTIBXOBJU0YRO-44" vertex="1">
          <mxGeometry width="310" height="470" as="geometry" />
        </mxCell>
        <mxCell id="6q7W-WelTIBXOBJU0YRO-43" value="" style="group" parent="6q7W-WelTIBXOBJU0YRO-44" vertex="1" connectable="0">
          <mxGeometry x="44.9967088607595" y="80.99641434262948" width="207.9746835443038" height="367.011952191235" as="geometry" />
        </mxCell>
        <mxCell id="6q7W-WelTIBXOBJU0YRO-24" value="Login / Register" style="shape=parallelogram;perimeter=parallelogramPerimeter;whiteSpace=wrap;html=1;fixedSize=1;" parent="6q7W-WelTIBXOBJU0YRO-43" vertex="1">
          <mxGeometry x="11.772151898734176" width="196.2025316455696" height="56.17529880478087" as="geometry" />
        </mxCell>
        <mxCell id="6q7W-WelTIBXOBJU0YRO-25" value="Send receipt for extractrion" style="shape=parallelogram;perimeter=parallelogramPerimeter;whiteSpace=wrap;html=1;fixedSize=1;" parent="6q7W-WelTIBXOBJU0YRO-43" vertex="1">
          <mxGeometry x="11.772151898734176" y="77.70916334661354" width="196.2025316455696" height="56.17529880478087" as="geometry" />
        </mxCell>
        <mxCell id="6q7W-WelTIBXOBJU0YRO-26" value="Send receipt for extractrion" style="shape=parallelogram;perimeter=parallelogramPerimeter;whiteSpace=wrap;html=1;fixedSize=1;" parent="6q7W-WelTIBXOBJU0YRO-43" vertex="1">
          <mxGeometry x="11.772151898734176" y="155.41832669322707" width="196.2025316455696" height="56.17529880478087" as="geometry" />
        </mxCell>
        <mxCell id="6q7W-WelTIBXOBJU0YRO-27" value="Display Analitics" style="shape=parallelogram;perimeter=parallelogramPerimeter;whiteSpace=wrap;html=1;fixedSize=1;" parent="6q7W-WelTIBXOBJU0YRO-43" vertex="1">
          <mxGeometry x="7.848101265822784" y="233.12749003984064" width="196.2025316455696" height="56.17529880478087" as="geometry" />
        </mxCell>
        <mxCell id="6q7W-WelTIBXOBJU0YRO-28" value="Export&amp;nbsp; Data" style="shape=parallelogram;perimeter=parallelogramPerimeter;whiteSpace=wrap;html=1;fixedSize=1;" parent="6q7W-WelTIBXOBJU0YRO-43" vertex="1">
          <mxGeometry y="310.83665338645415" width="196.2025316455696" height="56.17529880478087" as="geometry" />
        </mxCell>
        <mxCell id="GPoHFAG82HTjP6kqSNCB-1" value="" style="shape=image;verticalLabelPosition=bottom;labelBackgroundColor=default;verticalAlign=top;aspect=fixed;imageAspect=0;image=http://blog.expertsoftwareteam.com/wp-content/uploads/2019/01/flutter12.png;" parent="6q7W-WelTIBXOBJU0YRO-44" vertex="1">
          <mxGeometry x="159" y="7" width="119" height="44.08" as="geometry" />
        </mxCell>
        <mxCell id="gesQ5qLBWTV1xN1W36ZR-1" style="edgeStyle=orthogonalEdgeStyle;rounded=0;orthogonalLoop=1;jettySize=auto;html=1;entryX=0.967;entryY=0.443;entryDx=0;entryDy=0;entryPerimeter=0;strokeWidth=2;" parent="1" target="6q7W-WelTIBXOBJU0YRO-10" edge="1">
          <mxGeometry relative="1" as="geometry">
            <mxPoint x="-701" y="-381" as="sourcePoint" />
          </mxGeometry>
        </mxCell>
        <mxCell id="gesQ5qLBWTV1xN1W36ZR-2" value="Train on" style="edgeLabel;html=1;align=center;verticalAlign=middle;resizable=0;points=[];" parent="gesQ5qLBWTV1xN1W36ZR-1" vertex="1" connectable="0">
          <mxGeometry x="0.2733" y="1" relative="1" as="geometry">
            <mxPoint x="-1" as="offset" />
          </mxGeometry>
        </mxCell>
        <mxCell id="6q7W-WelTIBXOBJU0YRO-17" value="" style="shape=flexArrow;endArrow=classic;startArrow=classic;html=1;rounded=0;entryX=1.001;entryY=0.828;entryDx=0;entryDy=0;exitX=-0.005;exitY=0.546;exitDx=0;exitDy=0;exitPerimeter=0;entryPerimeter=0;strokeWidth=2;" parent="1" source="6q7W-WelTIBXOBJU0YRO-2" target="gesQ5qLBWTV1xN1W36ZR-5" edge="1">
          <mxGeometry width="100" height="100" relative="1" as="geometry">
            <mxPoint x="206" y="-27" as="sourcePoint" />
            <mxPoint x="207" y="-149" as="targetPoint" />
          </mxGeometry>
        </mxCell>
        <mxCell id="6q7W-WelTIBXOBJU0YRO-38" value="" style="group" parent="1" vertex="1" connectable="0">
          <mxGeometry x="-551" y="-430" width="312" height="351.19" as="geometry" />
        </mxCell>
        <mxCell id="6q7W-WelTIBXOBJU0YRO-36" value="" style="group" parent="6q7W-WelTIBXOBJU0YRO-38" vertex="1" connectable="0">
          <mxGeometry x="14.596491228070175" width="297.40350877192986" height="139.33854251012144" as="geometry" />
        </mxCell>
        <mxCell id="6q7W-WelTIBXOBJU0YRO-31" value="" style="shape=parallelogram;perimeter=parallelogramPerimeter;whiteSpace=wrap;html=1;fixedSize=1;labelPosition=center;verticalLabelPosition=middle;align=center;verticalAlign=middle;size=29.35714285714272;" parent="6q7W-WelTIBXOBJU0YRO-36" vertex="1">
          <mxGeometry width="297.40350877192986" height="139.33854251012144" as="geometry" />
        </mxCell>
        <mxCell id="gesQ5qLBWTV1xN1W36ZR-30" value="Model Extraction" style="text;html=1;align=center;verticalAlign=middle;whiteSpace=wrap;rounded=0;" parent="6q7W-WelTIBXOBJU0YRO-36" vertex="1">
          <mxGeometry x="19.4" width="121.6" height="29.74" as="geometry" />
        </mxCell>
        <mxCell id="Wht4OzGkCItvq8DnMEh8-46" value="" style="group" vertex="1" connectable="0" parent="6q7W-WelTIBXOBJU0YRO-36">
          <mxGeometry x="15.399999999999999" y="88" width="256.6035087719298" height="38.2" as="geometry" />
        </mxCell>
        <mxCell id="Wht4OzGkCItvq8DnMEh8-11" value="" style="group" vertex="1" connectable="0" parent="Wht4OzGkCItvq8DnMEh8-46">
          <mxGeometry width="88.6" height="33.36" as="geometry" />
        </mxCell>
        <mxCell id="Wht4OzGkCItvq8DnMEh8-7" value="" style="html=1;shape=mxgraph.infographic.ribbonSimple;notch1=10.83;notch2=10.03;align=center;verticalAlign=middle;fontSize=14;fontStyle=0;fillColor=#FFFFFF;whiteSpace=wrap;" vertex="1" parent="Wht4OzGkCItvq8DnMEh8-11">
          <mxGeometry width="88.6" height="33.36" as="geometry" />
        </mxCell>
        <mxCell id="Wht4OzGkCItvq8DnMEh8-9" value="&lt;font style=&quot;font-size: 9px;&quot;&gt;Receipt section prediction&lt;/font&gt;" style="text;html=1;align=center;verticalAlign=middle;whiteSpace=wrap;rounded=0;" vertex="1" parent="Wht4OzGkCItvq8DnMEh8-11">
          <mxGeometry x="6" y="0.4800000000000001" width="68.41" height="25.02" as="geometry" />
        </mxCell>
        <mxCell id="6q7W-WelTIBXOBJU0YRO-8" value="&lt;font color=&quot;#ffffff&quot;&gt;Yolo Model&lt;/font&gt;" style="sketch=0;outlineConnect=0;fontColor=#232F3E;gradientColor=none;fillColor=#01A88D;strokeColor=none;dashed=0;verticalLabelPosition=bottom;verticalAlign=top;align=center;html=1;fontSize=12;fontStyle=0;aspect=fixed;pointerEvents=1;shape=mxgraph.aws4.sagemaker_model;" parent="Wht4OzGkCItvq8DnMEh8-11" vertex="1">
          <mxGeometry x="69.07203116085145" y="17.18176" width="8.319915077047915" height="8.319915077047915" as="geometry" />
        </mxCell>
        <mxCell id="Wht4OzGkCItvq8DnMEh8-41" value="" style="group" vertex="1" connectable="0" parent="Wht4OzGkCItvq8DnMEh8-46">
          <mxGeometry x="168.00350877192975" width="88.6" height="38.2" as="geometry" />
        </mxCell>
        <mxCell id="Wht4OzGkCItvq8DnMEh8-42" value="" style="html=1;shape=mxgraph.infographic.ribbonSimple;notch1=10.83;notch2=10.03;align=center;verticalAlign=middle;fontSize=14;fontStyle=0;fillColor=#FFFFFF;whiteSpace=wrap;" vertex="1" parent="Wht4OzGkCItvq8DnMEh8-41">
          <mxGeometry width="88.6" height="33.36" as="geometry" />
        </mxCell>
        <mxCell id="Wht4OzGkCItvq8DnMEh8-43" value="&lt;font style=&quot;font-size: 9px;&quot;&gt;Classification &amp;amp; formating&lt;/font&gt;" style="text;html=1;align=center;verticalAlign=middle;whiteSpace=wrap;rounded=0;" vertex="1" parent="Wht4OzGkCItvq8DnMEh8-41">
          <mxGeometry x="8" width="62.41" height="25.02" as="geometry" />
        </mxCell>
        <mxCell id="Wht4OzGkCItvq8DnMEh8-12" value="" style="group" vertex="1" connectable="0" parent="Wht4OzGkCItvq8DnMEh8-41">
          <mxGeometry x="-84" width="88.6" height="38.2" as="geometry" />
        </mxCell>
        <mxCell id="Wht4OzGkCItvq8DnMEh8-13" value="" style="html=1;shape=mxgraph.infographic.ribbonSimple;notch1=10.83;notch2=10.03;align=center;verticalAlign=middle;fontSize=14;fontStyle=0;fillColor=#FFFFFF;whiteSpace=wrap;" vertex="1" parent="Wht4OzGkCItvq8DnMEh8-12">
          <mxGeometry width="88.6" height="33.36" as="geometry" />
        </mxCell>
        <mxCell id="Wht4OzGkCItvq8DnMEh8-14" value="&lt;font style=&quot;font-size: 9px;&quot;&gt;Tesseract extraction&lt;/font&gt;" style="text;html=1;align=center;verticalAlign=middle;whiteSpace=wrap;rounded=0;" vertex="1" parent="Wht4OzGkCItvq8DnMEh8-12">
          <mxGeometry x="1.59" y="1.37" width="62.41" height="25.02" as="geometry" />
        </mxCell>
        <mxCell id="6q7W-WelTIBXOBJU0YRO-11" value="" style="shape=image;verticalLabelPosition=bottom;labelBackgroundColor=default;verticalAlign=top;aspect=fixed;imageAspect=0;image=https://logodix.com/logo/1752785.png;" parent="Wht4OzGkCItvq8DnMEh8-12" vertex="1">
          <mxGeometry x="58" y="4.99" width="21" height="23.38" as="geometry" />
        </mxCell>
        <mxCell id="6q7W-WelTIBXOBJU0YRO-37" value="" style="group" parent="6q7W-WelTIBXOBJU0YRO-38" vertex="1" connectable="0">
          <mxGeometry y="156.40040485829957" width="297.40350877192986" height="194.78959514170037" as="geometry" />
        </mxCell>
        <mxCell id="6q7W-WelTIBXOBJU0YRO-32" value="Generate Analitics" style="shape=parallelogram;perimeter=parallelogramPerimeter;whiteSpace=wrap;html=1;fixedSize=1;container=0;" parent="6q7W-WelTIBXOBJU0YRO-37" vertex="1">
          <mxGeometry x="2.7368421052631584" width="291.92982456140356" height="85.30931174089068" as="geometry" />
        </mxCell>
        <mxCell id="6q7W-WelTIBXOBJU0YRO-33" value="" style="shape=parallelogram;perimeter=parallelogramPerimeter;whiteSpace=wrap;html=1;fixedSize=1;" parent="6q7W-WelTIBXOBJU0YRO-37" vertex="1">
          <mxGeometry y="109.4802834008097" width="297.40350877192986" height="85.30931174089068" as="geometry" />
        </mxCell>
        <mxCell id="Wht4OzGkCItvq8DnMEh8-47" value="Database management" style="text;html=1;align=center;verticalAlign=middle;whiteSpace=wrap;rounded=0;" vertex="1" parent="6q7W-WelTIBXOBJU0YRO-37">
          <mxGeometry x="2.7399999999999984" y="109.47999999999999" width="166" height="29.74" as="geometry" />
        </mxCell>
      </root>
    </mxGraphModel>
  </diagram>
</mxfile>
